<?xml version="1.0" encoding="iso-8859-1"?>
<!-- Generator: Adobe Illustrator 19.0.0, SVG Export Plug-In . SVG Version: 6.00 Build 0)  -->
<svg version="1.1" id="Layer_1" xmlns="http://www.w3.org/2000/svg" xmlns:xlink="http://www.w3.org/1999/xlink" x="0px" y="0px" viewBox="0 0 512 512" style="enable-background:new 0 0 512 512; filter: drop-shadow(0 10px 30px rgba(2, 11, 22, 0.5));" xml:space="preserve">
	<g transform="translate(1 1)">
		<g>
			<g>
				<path fill="none" stroke="#FFF" stroke-width="6" stroke-linecap="round" stroke-linejoin="round" d="M485.4-1H24.6C10.093-1-1,10.093-1,24.6v85.333V485.4c0,14.507,11.093,25.6,25.6,25.6h460.8
				c14.507,0,25.6-11.093,25.6-25.6V109.933V24.6C511,10.093,499.907-1,485.4-1z M16.067,24.6c0-5.12,3.413-8.533,8.533-8.533h460.8
				c5.12,0,8.533,3.413,8.533,8.533v76.8H16.067V24.6z M493.933,485.4c0,5.12-3.413,8.533-8.533,8.533H24.6
				c-5.12,0-8.533-3.413-8.533-8.533V118.467h477.867V485.4z" />
				<path fill="none" stroke="#FFF" stroke-width="6" stroke-linecap="round" stroke-linejoin="round" d="M67.267,24.6c-18.773,0-34.133,15.36-34.133,34.133s15.36,34.133,34.133,34.133S101.4,77.507,101.4,58.733
				S86.04,24.6,67.267,24.6z M67.267,75.8C57.88,75.8,50.2,68.12,50.2,58.733s7.68-17.067,17.067-17.067s17.067,7.68,17.067,17.067
				S76.653,75.8,67.267,75.8z" />
				<path fill="none" stroke="#FFF" stroke-width="6" stroke-linecap="round" stroke-linejoin="round" d="M152.6,24.6c-18.773,0-34.133,15.36-34.133,34.133s15.36,34.133,34.133,34.133c18.773,0,34.133-15.36,34.133-34.133
				S171.373,24.6,152.6,24.6z M152.6,75.8c-9.387,0-17.067-7.68-17.067-17.067s7.68-17.067,17.067-17.067
				c9.387,0,17.067,7.68,17.067,17.067S161.987,75.8,152.6,75.8z" />
				<path fill="none" stroke="#FFF" stroke-width="6" stroke-linecap="round" stroke-linejoin="round" d="M237.933,24.6c-18.773,0-34.133,15.36-34.133,34.133s15.36,34.133,34.133,34.133s34.133-15.36,34.133-34.133
				S256.707,24.6,237.933,24.6z M237.933,75.8c-9.387,0-17.067-7.68-17.067-17.067s7.68-17.067,17.067-17.067S255,49.347,255,58.733
				S247.32,75.8,237.933,75.8z" />
				<path fill="none" stroke="#FFF" stroke-width="6" stroke-linecap="round" stroke-linejoin="round" d="M58.733,161.133H127c5.12,0,8.533-3.413,8.533-8.533c0-5.12-3.413-8.533-8.533-8.533H58.733
				c-5.12,0-8.533,3.413-8.533,8.533C50.2,157.72,53.613,161.133,58.733,161.133z" />
				<path fill="none" stroke="#FFF" stroke-width="6" stroke-linecap="round" stroke-linejoin="round" d="M58.733,263.533H127c5.12,0,8.533-3.413,8.533-8.533s-3.413-8.533-8.533-8.533H58.733c-5.12,0-8.533,3.413-8.533,8.533
				S53.613,263.533,58.733,263.533z" />
				<path fill="none" stroke="#FFF" stroke-width="6" stroke-linecap="round" stroke-linejoin="round" d="M75.8,203.8c0,5.12,3.413,8.533,8.533,8.533H203.8c5.12,0,8.533-3.413,8.533-8.533c0-5.12-3.413-8.533-8.533-8.533
				H84.333C79.213,195.267,75.8,198.68,75.8,203.8z" />
				<path fill="none" stroke="#FFF" stroke-width="6" stroke-linecap="round" stroke-linejoin="round" d="M58.733,314.733H203.8c5.12,0,8.533-3.413,8.533-8.533s-3.413-8.533-8.533-8.533H58.733c-5.12,0-8.533,3.413-8.533,8.533
				S53.613,314.733,58.733,314.733z" />
				<path fill="none" stroke="#FFF" stroke-width="6" stroke-linecap="round" stroke-linejoin="round" d="M84.333,365.933H178.2c5.12,0,8.533-3.413,8.533-8.533s-3.413-8.533-8.533-8.533H84.333c-5.12,0-8.533,3.413-8.533,8.533
				S79.213,365.933,84.333,365.933z" />
				<path fill="none" stroke="#FFF" stroke-width="6" stroke-linecap="round" stroke-linejoin="round" d="M178.2,451.267H84.333c-5.12,0-8.533,3.413-8.533,8.533c0,5.12,3.413,8.533,8.533,8.533H178.2
				c5.12,0,8.533-3.413,8.533-8.533C186.733,454.68,183.32,451.267,178.2,451.267z" />
				<path fill="none" stroke="#FFF" stroke-width="6" stroke-linecap="round" stroke-linejoin="round" d="M101.4,408.6c0,5.12,3.413,8.533,8.533,8.533H229.4c5.12,0,8.533-3.413,8.533-8.533s-3.413-8.533-8.533-8.533H109.933
				C104.813,400.067,101.4,403.48,101.4,408.6z" />
			</g>
		</g>
	</g>
	<g></g>
	<g></g>
	<g></g>
	<g></g>
	<g></g>
	<g></g>
	<g></g>
	<g></g>
	<g></g>
	<g></g>
	<g></g>
	<g></g>
	<g></g>
	<g></g>
	<g></g>
</svg>
