<?xml version="1.0" encoding="iso-8859-1"?>
<!-- Generator: Adobe Illustrator 19.0.0, SVG Export Plug-In . SVG Version: 6.00 Build 0)  -->
<svg version="1.1" id="Layer_1" xmlns="http://www.w3.org/2000/svg" xmlns:xlink="http://www.w3.org/1999/xlink" x="0px" y="0px"
	 viewBox="0 0 512 512" style="enable-background:new 0 0 512 512; filter: drop-shadow(0 10px 30px rgba(2, 11, 22, 0.5));" xml:space="preserve">
<path fill="none" stroke="#ff4d5a" stroke-width="6" stroke-linecap="round" stroke-linejoin="round" d="M408.6,323.267v17.067c0,4.267-4.267,8.533-8.533,8.533c-5.12,0-8.533,3.413-8.533,8.533s3.413,8.533,8.533,8.533
				c14.507,0,25.6-11.093,25.6-25.6V326.68l14.507-14.507c3.413-3.413,3.413-8.533,0-11.947l-14.507-14.507v-13.653
				c0-14.507-11.093-25.6-25.6-25.6c-5.12,0-8.533,3.413-8.533,8.533s3.413,8.533,8.533,8.533c4.267,0,8.533,4.267,8.533,8.533
				v17.067c0,2.56,0.853,4.267,2.56,5.973l11.093,11.093l-11.093,11.093C409.453,319,408.6,320.707,408.6,323.267z"/>
                </svg>