<?xml version="1.0" encoding="iso-8859-1"?>
<!-- Generator: Adobe Illustrator 19.0.0, SVG Export Plug-In . SVG Version: 6.00 Build 0)  -->
<svg version="1.1" id="Layer_1" xmlns="http://www.w3.org/2000/svg" xmlns:xlink="http://www.w3.org/1999/xlink" x="0px" y="0px" viewBox="0 0 512 512" style="enable-background:new 0 0 512 512;filter: drop-shadow(0 10px 30px rgba(2, 11, 22, 0.5));" xml:space="preserve">
    <path fill="none" stroke="#ff4d5a" stroke-width="6" stroke-linecap="round" stroke-linejoin="round" d="M272.067,335.213V383c0,14.507,11.093,25.6,25.6,25.6h153.6c14.507,0,25.6-11.093,25.6-25.6V229.4
				c0-14.507-11.093-25.6-25.6-25.6h-153.6c-14.507,0-25.6,11.093-25.6,25.6v47.787l-23.04,23.04c-3.413,3.413-3.413,8.533,0,11.947
				L272.067,335.213z M286.573,286.573c1.707-1.707,2.56-3.413,2.56-5.973v-51.2c0-5.12,3.413-8.533,8.533-8.533h153.6
				c5.12,0,8.533,3.413,8.533,8.533V383c0,5.12-3.413,8.533-8.533,8.533h-153.6c-5.12,0-8.533-3.413-8.533-8.533v-51.2
				c0-2.56-0.853-4.267-2.56-5.973L266.947,306.2L286.573,286.573z" />
    <path fill="none" stroke="#ff4d5a" stroke-width="6" stroke-linecap="round" stroke-linejoin="round" d="M323.267,326.68v13.653c0,14.507,11.093,25.6,25.6,25.6c5.12,0,8.533-3.413,8.533-8.533s-3.413-8.533-8.533-8.533
				c-4.267,0-8.533-4.267-8.533-8.533v-17.067c0-2.56-0.853-4.267-2.56-5.973L326.68,306.2l11.093-11.093
				c1.707-1.707,2.56-3.413,2.56-5.973v-17.067c0-4.267,4.267-8.533,8.533-8.533c5.12,0,8.533-3.413,8.533-8.533
				s-3.413-8.533-8.533-8.533c-14.507,0-25.6,11.093-25.6,25.6v13.653l-14.507,14.507c-1.707,1.707-2.56,3.413-2.56,5.973
				c0,1.707,0.853,4.267,2.56,5.973L323.267,326.68z" />
</svg>