<?xml version="1.0" encoding="iso-8859-1"?>
<!-- Generator: Adobe Illustrator 19.0.0, SVG Export Plug-In . SVG Version: 6.00 Build 0)  -->
<svg version="1.1" id="Layer_1" xmlns="http://www.w3.org/2000/svg" xmlns:xlink="http://www.w3.org/1999/xlink" x="0px" y="0px" viewBox="0 0 512 512" style="enable-background:new 0 0 512 512; filter: drop-shadow(0 10px 30px rgba(2, 11, 22, 0.5));" xml:space="preserve">
	<g>
		<g>
			<path fill="none" stroke="#FFF" stroke-width="6" stroke-linecap="round" stroke-linejoin="round" d="M195.562,0H18.757C13.67,0,9.548,4.123,9.548,9.209v280.992c0,5.086,4.122,9.209,9.209,9.209h176.804
			c5.087,0,9.209-4.123,9.209-9.209V9.209C204.771,4.123,200.649,0,195.562,0z M186.353,280.992H27.966V18.418h158.386V280.992z" />
		</g>
	</g>
	<g>
		<g>
			<path fill="none" stroke="#FFF" stroke-width="6" stroke-linecap="round" stroke-linejoin="round" d="M407.359,212.59H230.555c-5.087,0-9.209,4.123-9.209,9.209v280.992c0,5.086,4.122,9.209,9.209,9.209h176.804
			c5.087,0,9.209-4.123,9.209-9.209V221.799C416.568,216.713,412.446,212.59,407.359,212.59z M398.15,493.582H239.764V231.008
			H398.15V493.582z" />
		</g>
	</g>
	<g>
		<g>
			<path fill="none" stroke="#FFF" stroke-width="6" stroke-linecap="round" stroke-linejoin="round" d="M407.359,0H230.555c-5.087,0-9.209,4.123-9.209,9.209v176.806c0,5.086,4.122,9.209,9.209,9.209h176.804
			c5.087,0,9.209-4.123,9.209-9.209V9.209C416.568,4.123,412.446,0,407.359,0z M398.15,176.806H239.764V18.418H398.15V176.806z" />
		</g>
	</g>
	<g>
		<g>
			<path fill="none" stroke="#FFF" stroke-width="6" stroke-linecap="round" stroke-linejoin="round" d="M155.044,40.824H88.742c-5.087,0-9.209,4.123-9.209,9.209s4.122,9.209,9.209,9.209h66.302
			c5.087,0,9.209-4.123,9.209-9.209S160.131,40.824,155.044,40.824z" />
		</g>
	</g>
	<g>
		<g>
			<path fill="none" stroke="#FFF" stroke-width="6" stroke-linecap="round" stroke-linejoin="round" d="M155.044,80.694H59.275c-5.087,0-9.209,4.123-9.209,9.209c0,5.086,4.122,9.209,9.209,9.209h95.769
			c5.087,0,9.209-4.123,9.209-9.209C164.253,84.817,160.131,80.694,155.044,80.694z" />
		</g>
	</g>
	<g>
		<g>
			<path fill="none" stroke="#FFF" stroke-width="6" stroke-linecap="round" stroke-linejoin="round"  d="M155.044,120.562H59.275c-5.087,0-9.209,4.123-9.209,9.209c0,5.086,4.122,9.209,9.209,9.209h95.769
			c5.087,0,9.209-4.123,9.209-9.209C164.253,124.685,160.131,120.562,155.044,120.562z" />
		</g>
	</g>
	<g>
		<g>
			<path fill="none" stroke="#FFF" stroke-width="6" stroke-linecap="round" stroke-linejoin="round" d="M155.044,160.431H59.275c-5.087,0-9.209,4.123-9.209,9.209c0,5.086,4.122,9.209,9.209,9.209h95.769
			c5.087,0,9.209-4.123,9.209-9.209C164.253,164.554,160.131,160.431,155.044,160.431z" />
		</g>
	</g>
	<g>
		<g>
			<path fill="none" stroke="#FFF" stroke-width="6" stroke-linecap="round" stroke-linejoin="round" d="M155.044,200.299H59.275c-5.087,0-9.209,4.123-9.209,9.209s4.122,9.209,9.209,9.209h95.769
			c5.087,0,9.209-4.123,9.209-9.209S160.131,200.299,155.044,200.299z" />
		</g>
	</g>
	<g>
		<g>
			<path fill="none" stroke="#FFF" stroke-width="6" stroke-linecap="round" stroke-linejoin="round" d="M99.792,240.168H59.275c-5.087,0-9.209,4.123-9.209,9.209s4.122,9.209,9.209,9.209h40.517
			c5.087,0,9.209-4.123,9.209-9.209S104.879,240.168,99.792,240.168z" />
		</g>
	</g>
	<g>
		<g>
			<path fill="none" stroke="#FFF" stroke-width="6" stroke-linecap="round" stroke-linejoin="round" d="M366.842,253.414H300.54c-5.087,0-9.209,4.123-9.209,9.209s4.123,9.209,9.209,9.209h66.302
			c5.087,0,9.209-4.123,9.209-9.209S371.929,253.414,366.842,253.414z" />
		</g>
	</g>
	<g>
		<g>
			<path fill="none" stroke="#FFF" stroke-width="6" stroke-linecap="round" stroke-linejoin="round" d="M366.842,293.283h-95.769c-5.087,0-9.209,4.123-9.209,9.209c0,5.086,4.123,9.209,9.209,9.209h95.769
			c5.087,0,9.209-4.123,9.209-9.209C376.051,297.406,371.929,293.283,366.842,293.283z" />
		</g>
	</g>
	<g>
		<g>
			<path fill="none" stroke="#FFF" stroke-width="6" stroke-linecap="round" stroke-linejoin="round" d="M366.842,333.151h-95.769c-5.087,0-9.209,4.123-9.209,9.209c0,5.086,4.123,9.209,9.209,9.209h95.769
			c5.087,0,9.209-4.123,9.209-9.209C376.051,337.274,371.929,333.151,366.842,333.151z" />
		</g>
	</g>
	<g>
		<g>
			<path fill="none" stroke="#FFF" stroke-width="6" stroke-linecap="round" stroke-linejoin="round" d="M366.842,373.019h-95.769c-5.087,0-9.209,4.123-9.209,9.209c0,5.086,4.123,9.209,9.209,9.209h95.769
			c5.087,0,9.209-4.123,9.209-9.209C376.051,377.142,371.929,373.019,366.842,373.019z" />
		</g>
	</g>
	<g>
		<g>
			<path fill="none" stroke="#FFF" stroke-width="6" stroke-linecap="round" stroke-linejoin="round" d="M366.842,412.888h-95.769c-5.087,0-9.209,4.123-9.209,9.209c0,5.086,4.123,9.209,9.209,9.209h95.769
			c5.087,0,9.209-4.123,9.209-9.209C376.051,417.011,371.929,412.888,366.842,412.888z" />
		</g>
	</g>
	<g>
		<g>
			<path fill="none" stroke="#FFF" stroke-width="6" stroke-linecap="round" stroke-linejoin="round" d="M311.59,452.756h-40.517c-5.087,0-9.209,4.123-9.209,9.209c0,5.086,4.123,9.209,9.209,9.209h40.517
			c5.087,0,9.209-4.123,9.209-9.209C320.799,456.879,316.677,452.756,311.59,452.756z" />
		</g>
	</g>
	<g></g>
	<g></g>
	<g></g>
	<g></g>
	<g></g>
	<g></g>
	<g></g>
	<g></g>
	<g></g>
	<g></g>
	<g></g>
	<g></g>
	<g></g>
	<g></g>
	<g></g>
</svg>
