<?xml version="1.0" encoding="iso-8859-1"?>
<!-- Generator: Adobe Illustrator 19.0.0, SVG Export Plug-In . SVG Version: 6.00 Build 0)  -->
<svg version="1.1" id="Layer_1" xmlns="http://www.w3.org/2000/svg" xmlns:xlink="http://www.w3.org/1999/xlink" x="0px" y="0px" viewBox="0 0 512 512" style="enable-background:new 0 0 512 512;filter: drop-shadow(0 10px 30px rgba(2, 11, 22, 0.5));" xml:space="preserve">
	<path fill="none" stroke="#ff4d5a" stroke-width="6" stroke-linecap="round" stroke-linejoin="round" d="M499.755,471.103c-3.599-3.596-9.429-3.596-13.026,0l-9.455,9.455V31.441l9.455,9.456
	c1.799,1.798,4.156,2.698,6.513,2.698s4.714-0.899,6.513-2.698c3.596-3.596,3.596-9.428,0-13.023L474.577,2.698
	c-3.598-3.596-9.428-3.596-13.024,0l-25.176,25.176c-3.596,3.596-3.596,9.428,0,13.023c3.598,3.596,9.428,3.596,13.024,0
	l9.455-9.456v449.117l-9.455-9.455c-3.598-3.596-9.428-3.596-13.024,0s-3.596,9.428,0,13.023l25.176,25.176
	c1.799,1.798,4.156,2.698,6.513,2.698c2.356,0,4.714-0.899,6.513-2.698l25.176-25.176
	C503.351,480.529,503.351,474.698,499.755,471.103z" />
</svg>