<?xml version="1.0" encoding="iso-8859-1"?>
<!-- Generator: Adobe Illustrator 19.0.0, SVG Export Plug-In . SVG Version: 6.00 Build 0)  -->
<svg version="1.1" id="Layer_1" xmlns="http://www.w3.org/2000/svg" xmlns:xlink="http://www.w3.org/1999/xlink" x="0px" y="0px" 
viewBox="0 0 512 512" style="enable-background:new 0 0 512 512;filter: drop-shadow(0 10px 30px rgba(2, 11, 22, 0.5));" xml:space="preserve">
<path fill="none" stroke="#FFF" stroke-width="6" stroke-linecap="round" stroke-linejoin="round" d="M195.562,316.776H18.757c-5.087,0-9.209,4.123-9.209,9.209v176.806c0,5.086,4.122,9.209,9.209,9.209h176.804
c5.087,0,9.209-4.123,9.209-9.209V325.985C204.771,320.899,200.649,316.776,195.562,316.776z M27.966,493.582v-35.823
l27.551-30.311l60.123,66.135H27.966z M140.532,493.582l-26.099-28.706l11.059-12.168l37.145,40.875H140.532z M186.353,492.291
l-54.044-59.471c-1.746-1.92-4.221-3.016-6.816-3.016s-5.07,1.095-6.815,3.016l-16.691,18.364l-39.659-43.623
c-1.745-1.919-4.22-3.014-6.815-3.014c-2.593,0-5.069,1.095-6.814,3.016l-20.736,22.814v-95.183h158.389V492.291z" />
</svg>