<?xml version="1.0" encoding="iso-8859-1"?>
<!-- Generator: Adobe Illustrator 19.0.0, SVG Export Plug-In . SVG Version: 6.00 Build 0)  -->
<svg version="1.1" id="Layer_1" xmlns="http://www.w3.org/2000/svg" xmlns:xlink="http://www.w3.org/1999/xlink" x="0px" y="0px" viewBox="0 0 512 512" style="enable-background:new 0 0 512 512;filter: drop-shadow(0 10px 30px rgba(2, 11, 22, 0.5));" xml:space="preserve">
    <path fill="none" stroke="#ff4d5a" stroke-width="6" stroke-linecap="round" stroke-linejoin="round" d="M364.079,42.359h-90.244c-5.087,0-9.209,4.123-9.209,9.209v22.101c0,5.086,4.123,9.209,9.209,9.209
	c5.087,0,9.209-4.123,9.209-9.209V60.777h26.704v75.509h-9.208c-5.087,0-9.209,4.123-9.209,9.209s4.122,9.209,9.209,9.209h36.834
	c5.087,0,9.209-4.123,9.209-9.209s-4.122-9.209-9.209-9.209h-9.208V60.777h26.704v12.891c0,5.086,4.122,9.209,9.209,9.209
	s9.209-4.123,9.209-9.209V51.568C373.288,46.482,369.166,42.359,364.079,42.359z" />
</svg>